<svg width="28" height="28" viewBox="0 0 28 28" fill="none" xmlns="http://www.w3.org/2000/svg">
<g clip-path="url(#clip0_167_1490)">
<path d="M25.6668 10.5L14.0002 5.83337L2.3335 10.5L14.0002 15.1667L25.6668 10.5V17.5V10.5Z" fill="#39B980"/>
<path d="M25.6668 10.5L14.0002 5.83337L2.3335 10.5L14.0002 15.1667L25.6668 10.5ZM25.6668 10.5V17.5" stroke="#39B980" stroke-width="1.5" stroke-linecap="round" stroke-linejoin="round"/>
<path d="M7 12.3667V18.6667C7 19.595 7.7375 20.4852 9.05025 21.1416C10.363 21.7979 12.1435 22.1667 14 22.1667C15.8565 22.1667 17.637 21.7979 18.9497 21.1416C20.2625 20.4852 21 19.595 21 18.6667V12.3667" fill="#39B980"/>
<path d="M7 12.3667V18.6667C7 19.595 7.7375 20.4852 9.05025 21.1416C10.363 21.7979 12.1435 22.1667 14 22.1667C15.8565 22.1667 17.637 21.7979 18.9497 21.1416C20.2625 20.4852 21 19.595 21 18.6667V12.3667" stroke="#39B980" stroke-width="1.5" stroke-linecap="round" stroke-linejoin="round"/>
</g>
<defs>
<clipPath id="clip0_167_1490">
<rect width="28" height="28" fill="white"/>
</clipPath>
</defs>
</svg>
