<svg width="24" height="24" viewBox="0 0 24 24" fill="none" xmlns="http://www.w3.org/2000/svg">
<path fill-rule="evenodd" clip-rule="evenodd" d="M12 5C14.4381 5 16.7695 6.27882 18.9422 8.37994C19.6835 9.09675 20.354 9.86202 20.9444 10.6276C21.3006 11.0896 21.5535 11.453 21.692 11.6695L22 12.1511L21.692 12.6328C21.5535 12.8493 21.3006 13.2127 20.9444 13.6747C20.354 14.4403 19.6835 15.2055 18.9422 15.9223C16.7695 18.0234 14.4381 19.3023 12 19.3023C9.56187 19.3023 7.23048 18.0234 5.05778 15.9223C4.31654 15.2055 3.64596 14.4403 3.05564 13.6747C2.69942 13.2127 2.44651 12.8493 2.30803 12.6328L2 12.1511L2.30803 11.6695C2.44651 11.453 2.69942 11.0896 3.05564 10.6276C3.64596 9.86202 4.31654 9.09675 5.05778 8.37994C7.23048 6.27882 9.56187 5 12 5ZM19.5286 11.7193C18.9881 11.0183 18.3736 10.317 17.6994 9.66509C15.8281 7.85543 13.8817 6.78778 12 6.78778C10.1183 6.78778 8.1719 7.85543 6.30058 9.66509C5.62641 10.317 5.0119 11.0183 4.47142 11.7193C4.35468 11.8707 4.24682 12.0151 4.1482 12.1511C4.24682 12.2872 4.35468 12.4316 4.47142 12.583C5.0119 13.2839 5.62641 13.9852 6.30058 14.6372C8.1719 16.4468 10.1183 17.5145 12 17.5145C13.8817 17.5145 15.8281 16.4468 17.6994 14.6372C18.3736 13.9852 18.9881 13.2839 19.5286 12.583C19.6453 12.4316 19.7532 12.2872 19.8518 12.1511C19.7532 12.0151 19.6453 11.8707 19.5286 11.7193ZM12 15.7267C10.0253 15.7267 8.42443 14.1259 8.42443 12.1511C8.42443 10.1764 10.0253 8.57557 12 8.57557C13.9747 8.57557 15.5756 10.1764 15.5756 12.1511C15.5756 14.1259 13.9747 15.7267 12 15.7267ZM12 13.9389C12.9874 13.9389 13.7878 13.1385 13.7878 12.1511C13.7878 11.1638 12.9874 10.3634 12 10.3634C11.0126 10.3634 10.2122 11.1638 10.2122 12.1511C10.2122 13.1385 11.0126 13.9389 12 13.9389Z" fill="#92929D"/>
</svg>
