<svg width="33" height="33" viewBox="0 0 33 33" fill="none" xmlns="http://www.w3.org/2000/svg">
<path fill-rule="evenodd" clip-rule="evenodd" d="M21.872 16.4999C21.9146 16.5 21.9572 16.5 22 16.5C22.0428 16.5 22.0854 16.5 22.128 16.4999C22.635 16.499 23.1333 16.4982 23.5771 16.6172C24.7635 16.9351 25.69 17.8615 26.0079 19.0479C26.1268 19.4917 26.126 19.99 26.1251 20.497C26.1251 20.5396 26.125 20.5822 26.125 20.625H28.875C29.6344 20.625 30.25 21.2406 30.25 22C30.25 22.7594 29.6344 23.375 28.875 23.375H26.125C26.125 23.4178 26.1251 23.4604 26.1251 23.503C26.126 24.01 26.1268 24.5083 26.0079 24.9523C25.69 26.1385 24.7635 27.0651 23.5771 27.3829C23.1333 27.5018 22.635 27.501 22.128 27.5001C22.0854 27.5001 22.0428 27.5 22 27.5C21.9572 27.5 21.9146 27.5001 21.872 27.5001C21.365 27.501 20.8667 27.5018 20.4229 27.3829C19.2365 27.0651 18.3101 26.1385 17.9922 24.9523C17.8732 24.5083 17.874 24.01 17.8749 23.503C17.8749 23.4604 17.875 23.4178 17.875 23.375H6.875C6.11562 23.375 5.5 22.7594 5.5 22C5.5 21.2406 6.11562 20.625 6.875 20.625H17.875C17.875 20.5824 17.8749 20.5396 17.8749 20.497C17.874 19.99 17.8732 19.4917 17.9922 19.0479C18.3101 17.8615 19.2365 16.9351 20.4229 16.6172C20.8667 16.4982 21.365 16.499 21.872 16.4999ZM21.3106 19.2574C21.164 19.264 21.1295 19.2748 21.1346 19.2734C20.8973 19.337 20.712 19.5224 20.6484 19.7596C20.6498 19.7545 20.639 19.789 20.6324 19.9356C20.6253 20.0896 20.625 20.2929 20.625 20.625V23.375C20.625 23.7072 20.6253 23.9104 20.6324 24.0644C20.639 24.2111 20.6498 24.2457 20.6484 24.2404C20.712 24.4778 20.8973 24.663 21.1346 24.7266C21.1295 24.7252 21.164 24.736 21.3106 24.7427C21.4646 24.7497 21.6678 24.75 22 24.75C22.3322 24.75 22.5354 24.7497 22.6894 24.7427C22.836 24.736 22.8705 24.7252 22.8654 24.7266C23.1028 24.663 23.288 24.4778 23.3516 24.2404C23.3503 24.2457 23.361 24.2111 23.3676 24.0644C23.3747 23.9104 23.375 23.7072 23.375 23.375V20.625C23.375 20.2929 23.3747 20.0896 23.3676 19.9356C23.361 19.789 23.3503 19.7545 23.3516 19.7596C23.288 19.5224 23.1028 19.337 22.8654 19.2734C22.8705 19.2748 22.836 19.264 22.6894 19.2574C22.5354 19.2503 22.3322 19.25 22 19.25C21.6678 19.25 21.4646 19.2503 21.3106 19.2574Z" fill="#D9D9D9"/>
<path fill-rule="evenodd" clip-rule="evenodd" d="M13.4405 16.4379C13.3979 16.4378 13.3553 16.4378 13.3125 16.4378C13.2697 16.4378 13.2271 16.4378 13.1845 16.4379C12.6775 16.4387 12.1792 16.4396 11.7354 16.3206C10.549 16.0027 9.62255 15.0762 9.30465 13.8899C9.18571 13.446 9.18654 12.9477 9.18736 12.4408C9.18736 12.3982 9.1875 12.3555 9.1875 12.3128L6.4375 12.3128C5.67809 12.3128 5.0625 11.6972 5.0625 10.9378C5.0625 10.1784 5.67809 9.56277 6.4375 9.56277L9.1875 9.56277C9.1875 9.52001 9.18736 9.47739 9.18736 9.43476C9.18654 8.9278 9.18571 8.4295 9.30465 7.98551C9.62255 6.7993 10.549 5.87268 11.7354 5.55492C12.1792 5.43598 12.6775 5.43681 13.1845 5.43764C13.2271 5.43764 13.2697 5.43777 13.3125 5.43777C13.3553 5.43777 13.3979 5.43764 13.4405 5.43764C13.9475 5.43681 14.4458 5.43598 14.8896 5.55492C16.076 5.87268 17.0025 6.7993 17.3204 7.98551C17.4393 8.4295 17.4385 8.9278 17.4376 9.43476C17.4376 9.47739 17.4375 9.52001 17.4375 9.56277L28.4375 9.56277C29.1969 9.56277 29.8125 10.1784 29.8125 10.9378C29.8125 11.6972 29.1969 12.3128 28.4375 12.3128L17.4375 12.3128C17.4375 12.3554 17.4376 12.3982 17.4376 12.4408C17.4385 12.9477 17.4393 13.446 17.3203 13.8899C17.0025 15.0762 16.076 16.0027 14.8896 16.3206C14.4458 16.4396 13.9475 16.4387 13.4405 16.4379ZM14.0019 13.6803C14.1485 13.6737 14.183 13.663 14.1779 13.6644C14.4153 13.6007 14.6005 13.4154 14.6641 13.1782C14.6627 13.1833 14.6735 13.1488 14.6801 13.0022C14.6872 12.8482 14.6875 12.6448 14.6875 12.3128L14.6875 9.56277C14.6875 9.23057 14.6872 9.02735 14.6801 8.87335C14.6735 8.72664 14.6627 8.69212 14.6641 8.69735C14.6005 8.46002 14.4153 8.27481 14.1779 8.21115C14.183 8.21252 14.1485 8.2018 14.0019 8.19506C13.8479 8.18805 13.6447 8.18777 13.3125 8.18777C12.9803 8.18777 12.7771 8.18805 12.6231 8.19506C12.4765 8.2018 12.442 8.21252 12.4471 8.21115C12.2097 8.27481 12.0245 8.46002 11.9609 8.69735C11.9623 8.69212 11.9515 8.72664 11.9449 8.87335C11.9378 9.02735 11.9375 9.23057 11.9375 9.56277L11.9375 12.3128C11.9375 12.6448 11.9378 12.8482 11.9449 13.0022C11.9515 13.1488 11.9623 13.1833 11.9609 13.1782C12.0245 13.4154 12.2097 13.6007 12.4471 13.6644C12.442 13.663 12.4765 13.6737 12.6231 13.6803C12.7771 13.6875 12.9803 13.6878 13.3125 13.6878C13.6447 13.6878 13.8479 13.6875 14.0019 13.6803Z" fill="#D9D9D9"/>
</svg>
