<svg width="28" height="28" viewBox="0 0 28 28" fill="none" xmlns="http://www.w3.org/2000/svg">
<g clip-path="url(#clip0_74_1909)">
<path d="M22.75 14.6673L14 23.3333L5.25003 14.6673C4.67288 14.1057 4.21828 13.4306 3.91483 12.6847C3.61139 11.9388 3.46568 11.1381 3.48689 10.3331C3.50809 9.52803 3.69575 8.73612 4.03804 8.00719C4.38034 7.27826 4.86985 6.62809 5.47576 6.09764C6.08167 5.56718 6.79085 5.16793 7.55864 4.92502C8.32643 4.68211 9.1362 4.60081 9.93695 4.68623C10.7377 4.77165 11.5121 5.02195 12.2114 5.42135C12.9107 5.82076 13.5196 6.36063 14 7.00696C14.4825 6.36532 15.0922 5.83017 15.791 5.435C16.4898 5.03983 17.2626 4.79315 18.0611 4.7104C18.8596 4.62765 19.6666 4.71061 20.4316 4.95409C21.1966 5.19756 21.9031 5.59631 22.5068 6.12539C23.1106 6.65446 23.5987 7.30246 23.9405 8.02884C24.2823 8.75521 24.4706 9.54433 24.4934 10.3468C24.5162 11.1493 24.3732 11.9478 24.0732 12.6924C23.7732 13.4371 23.3228 14.1118 22.75 14.6743" stroke="#39B980" stroke-width="1.75" stroke-linecap="round" stroke-linejoin="round"/>
</g>
<defs>
<clipPath id="clip0_74_1909">
<rect width="28" height="28" fill="white"/>
</clipPath>
</defs>
</svg>
