<svg width="28" height="28" viewBox="0 0 28 28" fill="none" xmlns="http://www.w3.org/2000/svg">
<g clip-path="url(#clip0_167_1790)">
<path d="M24.5 16.3333L21 12.8333H12.8333C12.5239 12.8333 12.2271 12.7104 12.0083 12.4916C11.7895 12.2728 11.6666 11.9761 11.6666 11.6667V4.66667C11.6666 4.35725 11.7895 4.0605 12.0083 3.84171C12.2271 3.62292 12.5239 3.5 12.8333 3.5H23.3333C23.6427 3.5 23.9395 3.62292 24.1583 3.84171C24.377 4.0605 24.5 4.35725 24.5 4.66667V16.3333Z" fill="#39B980"/>
<path d="M16.3333 17.5V19.8333C16.3333 20.1427 16.2104 20.4395 15.9916 20.6583C15.7728 20.877 15.4761 21 15.1667 21H7L3.5 24.5V12.8333C3.5 12.5239 3.62292 12.2271 3.84171 12.0083C4.0605 11.7895 4.35725 11.6666 4.66667 11.6666H7" fill="#39B980"/>
</g>
<defs>
<clipPath id="clip0_167_1790">
<rect width="28" height="28" fill="white"/>
</clipPath>
</defs>
</svg>
