<svg width="28" height="28" viewBox="0 0 28 28" fill="none" xmlns="http://www.w3.org/2000/svg">
<g clip-path="url(#clip0_167_1599)">
<path d="M24.4998 16.3333L20.9998 12.8333H12.8332C12.5238 12.8333 12.227 12.7104 12.0082 12.4916C11.7894 12.2728 11.6665 11.9761 11.6665 11.6667V4.66667C11.6665 4.35725 11.7894 4.0605 12.0082 3.84171C12.227 3.62292 12.5238 3.5 12.8332 3.5H23.3332C23.6426 3.5 23.9393 3.62292 24.1581 3.84171C24.3769 4.0605 24.4998 4.35725 24.4998 4.66667V16.3333Z" stroke="black" stroke-width="1.75" stroke-linecap="round" stroke-linejoin="round"/>
<path d="M16.3333 17.5V19.8333C16.3333 20.1427 16.2104 20.4395 15.9916 20.6583C15.7728 20.8771 15.4761 21 15.1667 21H7L3.5 24.5V12.8333C3.5 12.5239 3.62292 12.2272 3.84171 12.0084C4.0605 11.7896 4.35725 11.6667 4.66667 11.6667H7" stroke="black" stroke-width="1.75" stroke-linecap="round" stroke-linejoin="round"/>
</g>
<defs>
<clipPath id="clip0_167_1599">
<rect width="28" height="28" fill="white"/>
</clipPath>
</defs>
</svg>
